<svg width="26" height="38" viewBox="0 0 26 38" fill="none" xmlns="http://www.w3.org/2000/svg">
<path d="M13.0001 18.0833C11.7845 18.0833 10.6187 17.6005 9.75918 16.7409C8.89963 15.8814 8.41675 14.7156 8.41675 13.5C8.41675 12.2844 8.89963 11.1186 9.75918 10.2591C10.6187 9.39956 11.7845 8.91667 13.0001 8.91667C14.2157 8.91667 15.3814 9.39956 16.241 10.2591C17.1005 11.1186 17.5834 12.2844 17.5834 13.5C17.5834 14.1019 17.4649 14.6979 17.2345 15.254C17.0042 15.81 16.6666 16.3153 16.241 16.7409C15.8154 17.1665 15.3101 17.5041 14.754 17.7345C14.198 17.9648 13.602 18.0833 13.0001 18.0833ZM13.0001 0.666672C9.59647 0.666672 6.33226 2.01875 3.92554 4.42547C1.51883 6.83218 0.166748 10.0964 0.166748 13.5C0.166748 23.125 13.0001 37.3333 13.0001 37.3333C13.0001 37.3333 25.8334 23.125 25.8334 13.5C25.8334 10.0964 24.4813 6.83218 22.0746 4.42547C19.6679 2.01875 16.4037 0.666672 13.0001 0.666672Z" fill="url(#paint0_linear_1290_12)"/>
<defs>
<linearGradient id="paint0_linear_1290_12" x1="-4.49992" y1="19.291" x2="25.8334" y2="19.291" gradientUnits="userSpaceOnUse">
<stop stop-color="#FF5637"/>
<stop offset="1" stop-color="#F7084C"/>
</linearGradient>
</defs>
</svg>
