<svg width="94" height="94" viewBox="0 0 94 94" fill="none" xmlns="http://www.w3.org/2000/svg">
<path fill-rule="evenodd" clip-rule="evenodd" d="M77.0813 -5.60754e-05C79.5188 -5.60754e-05 81.5 1.98119 81.5 4.41869V12.4999H89.5813C90.4553 12.4998 91.3098 12.7588 92.0367 13.2443C92.7635 13.7299 93.33 14.42 93.6645 15.2276C93.9991 16.0351 94.0866 16.9237 93.916 17.781C93.7454 18.6383 93.3244 19.4257 92.7063 20.0437L83.5813 29.1687C82.2489 30.4981 80.4446 31.2463 78.5625 31.2499H69.375L47.3125 53.3124C46.4239 54.1404 45.2486 54.5912 44.0342 54.5698C42.8199 54.5484 41.6612 54.0564 40.8024 53.1976C39.9435 52.3387 39.4516 51.1801 39.4302 49.9657C39.4087 48.7513 39.8595 47.576 40.6875 46.6874L62.75 24.6249V15.4374C62.75 13.5562 63.5 11.7499 64.8313 10.4124L73.9563 1.28744C74.3652 0.875201 74.8522 0.548495 75.3887 0.326374C75.9252 0.104254 76.5006 -0.00883766 77.0813 -0.00630608M9.62501 49.9999C9.62434 44.9033 10.757 39.8703 12.941 35.2653C15.125 30.6603 18.3056 26.5986 22.2527 23.3742C26.1997 20.1498 30.8144 17.8434 35.7625 16.6221C40.7106 15.4007 45.8685 15.295 50.8625 16.3124C52.0745 16.5437 53.3289 16.2878 54.3534 15.6001C55.3779 14.9125 56.09 13.8486 56.3351 12.6393C56.5803 11.43 56.3387 10.1728 55.6629 9.14051C54.987 8.10817 53.9314 7.38395 52.725 7.12494C43.5104 5.25152 33.9375 6.39675 25.4248 10.3909C16.9122 14.3851 9.91292 21.0156 5.46433 29.2998C1.01575 37.584 -0.645418 47.0811 0.727027 56.3834C2.09947 65.6858 6.43249 74.2985 13.0839 80.9451C19.7353 87.5916 28.3512 91.9184 37.6546 93.284C46.958 94.6496 56.4538 92.9815 64.7348 88.5268C73.0157 84.0722 79.6411 77.0681 83.629 68.5525C87.617 60.037 88.7552 50.4631 86.875 41.2499C86.6272 40.0316 85.9055 38.9616 84.8688 38.2753C83.8321 37.5891 82.5652 37.3428 81.3469 37.5906C80.1285 37.8384 79.0585 38.56 78.3723 39.5967C77.686 40.6335 77.4397 41.9004 77.6875 43.1187C78.1417 45.3395 78.3708 47.6333 78.375 49.9999C78.375 59.1168 74.7534 67.8602 68.3068 74.3067C61.8602 80.7533 53.1168 84.3749 44 84.3749C34.8832 84.3749 26.1398 80.7533 19.6932 74.3067C13.2466 67.8602 9.62501 59.1168 9.62501 49.9999ZM43.15 34.3999C44.3916 34.3336 45.5559 33.7768 46.3869 32.8521C47.2179 31.9273 47.6476 30.7102 47.5813 29.4687C47.515 28.2271 46.9582 27.0628 46.0334 26.2318C45.1086 25.4008 43.8916 24.9711 42.65 25.0374C37.8495 25.2961 33.2255 26.9335 29.3318 29.7532C25.4382 32.573 22.4401 36.4556 20.6969 40.9358C18.9536 45.416 18.5391 50.3039 19.503 55.0137C20.4669 59.7235 22.7683 64.0555 26.1314 67.4907C29.4946 70.9259 33.7769 73.3185 38.4653 74.3819C43.1536 75.4453 48.0491 75.1344 52.5653 73.4865C57.0814 71.8385 61.0266 68.9233 63.9282 65.0903C66.8298 61.2572 68.5647 56.6689 68.925 51.8749C69.017 50.6351 68.6127 49.4094 67.801 48.4676C66.9893 47.5258 65.8368 46.9451 64.5969 46.8531C63.357 46.7611 62.1313 47.1654 61.1896 47.9771C60.2478 48.7887 59.667 49.9413 59.575 51.1812C59.347 54.1758 58.2609 57.0413 56.4465 59.4346C54.6321 61.8279 52.1665 63.6476 49.3447 64.6758C46.5229 65.7041 43.4646 65.8973 40.5358 65.2324C37.607 64.5675 34.9319 63.0726 32.8308 60.9267C30.7296 58.7808 29.2914 56.0748 28.6883 53.1327C28.0853 50.1906 28.3429 47.137 29.4304 44.3375C30.5178 41.538 32.389 39.1112 34.82 37.3477C37.251 35.5841 40.1387 34.5585 43.1375 34.3937" fill="url(#paint0_linear_99_163)"/>
<defs>
<linearGradient id="paint0_linear_99_163" x1="-16.7856" y1="47.6149" x2="94.001" y2="47.6149" gradientUnits="userSpaceOnUse">
<stop stop-color="#FF5637"/>
<stop offset="1" stop-color="#F7084C"/>
</linearGradient>
</defs>
</svg>
