<svg width="44" height="44" viewBox="0 0 44 44" fill="none" xmlns="http://www.w3.org/2000/svg">
<path d="M42.4188 10.3843C41.7713 8.9158 40.9214 7.5452 39.8937 6.31245L34.4469 11.7593C35.722 12.514 37.2241 12.79 38.6842 12.5381C40.1444 12.2861 41.4671 11.5226 42.4156 10.3843M32.2344 9.54995L37.6812 4.10308C36.4495 3.07568 35.0799 2.22576 33.6125 1.57808C32.4734 2.52673 31.7094 3.85006 31.4574 5.31089C31.2055 6.77171 31.482 8.27452 32.2375 9.54995M28.25 6.37495C28.25 8.39995 28.8938 10.275 29.9844 11.8062L27.4688 14.3218L16.5688 3.4187C18.5274 1.99574 20.7637 1.00102 23.1322 0.499223C25.5006 -0.00257038 27.9482 -0.000192516 30.3156 0.506202C28.9791 2.17028 28.2504 4.2406 28.25 6.37495ZM29.6781 16.5312L32.1937 14.0156C33.725 15.1093 35.6 15.75 37.625 15.75C39.759 15.7504 41.8293 15.0228 43.4938 13.6875C43.7458 14.8583 43.8729 16.0666 43.875 17.3125C43.875 21.0937 42.6531 24.5937 40.5812 27.4343L29.6781 16.5312ZM38.5125 29.7843L27.4688 18.7406L25.5781 20.6312C28.8281 24.3358 30.8223 28.9739 31.275 33.8812C34.025 33.1218 36.5 31.6906 38.5125 29.7843ZM10.1156 12.725C10.875 9.97495 12.3031 7.49995 14.2094 5.48745L25.2594 16.5312L23.3687 18.4218C19.6641 15.1719 15.0229 13.1777 10.1156 12.725ZM4.8125 15.75C3.5693 15.75 2.37701 16.2438 1.49794 17.1229C0.61886 18.002 0.125 19.1942 0.125 20.4375V23.5625C0.125 28.9497 2.26506 34.1162 6.07439 37.9256C9.88373 41.7349 15.0503 43.875 20.4375 43.875H23.5625C24.8057 43.875 25.998 43.3811 26.8771 42.502C27.7561 41.6229 28.25 40.4307 28.25 39.1875V36.0625C28.25 30.6752 26.1099 25.5087 22.3006 21.6993C18.4913 17.89 13.3247 15.75 7.9375 15.75H4.8125ZM10.7375 26.3625C10.8826 26.2169 11.0551 26.1015 11.2449 26.0227C11.4347 25.944 11.6382 25.9034 11.8438 25.9034C12.0493 25.9034 12.2528 25.944 12.4426 26.0227C12.6324 26.1015 12.8049 26.2169 12.95 26.3625L17.6375 31.05C17.7828 31.1952 17.898 31.3677 17.9766 31.5575C18.0553 31.7473 18.0957 31.9508 18.0957 32.1562C18.0957 32.3617 18.0553 32.5651 17.9766 32.7549C17.898 32.9447 17.7828 33.1172 17.6375 33.2625C17.4922 33.4077 17.3198 33.523 17.1299 33.6016C16.9401 33.6802 16.7367 33.7207 16.5312 33.7207C16.3258 33.7207 16.1224 33.6802 15.9326 33.6016C15.7427 33.523 15.5703 33.4077 15.425 33.2625L10.7375 28.575C10.592 28.4298 10.4765 28.2574 10.3978 28.0676C10.319 27.8777 10.2785 27.6742 10.2785 27.4687C10.2785 27.2632 10.319 27.0597 10.3978 26.8698C10.4765 26.68 10.592 26.5076 10.7375 26.3625Z" fill="white"/>
</svg>
