<svg width="38" height="38" viewBox="0 0 38 38" fill="none" xmlns="http://www.w3.org/2000/svg">
<path d="M19.0001 0.666664C29.1256 0.666664 37.3334 8.8745 37.3334 19C37.3334 29.1255 29.1256 37.3333 19.0001 37.3333C8.87458 37.3333 0.666748 29.1255 0.666748 19C0.666748 8.8745 8.87458 0.666664 19.0001 0.666664ZM19.0001 8C18.5139 8 18.0475 8.19315 17.7037 8.53697C17.3599 8.88079 17.1667 9.3471 17.1667 9.83333V19C17.1669 19.4862 17.3601 19.9524 17.7039 20.2962L23.2039 25.7962C23.5497 26.1301 24.0128 26.3149 24.4935 26.3107C24.9742 26.3066 25.434 26.1137 25.7739 25.7738C26.1138 25.4339 26.3066 24.9741 26.3108 24.4934C26.315 24.0127 26.1302 23.5496 25.7962 23.2038L20.8334 18.241V9.83333C20.8334 9.3471 20.6403 8.88079 20.2964 8.53697C19.9526 8.19315 19.4863 8 19.0001 8Z" fill="url(#paint0_linear_103_183)"/>
<defs>
<linearGradient id="paint0_linear_103_183" x1="-5.99992" y1="19.291" x2="37.3334" y2="19.291" gradientUnits="userSpaceOnUse">
<stop stop-color="#FF5637"/>
<stop offset="1" stop-color="#F7084C"/>
</linearGradient>
</defs>
</svg>
