<svg width="42" height="42" viewBox="0 0 42 42" fill="none" xmlns="http://www.w3.org/2000/svg">
<path d="M38.8542 26.9584L41.8333 23.9792L38.8542 21L31.4167 28.4375L13.5625 10.5834L21 3.14585L18.0208 0.166687L15.0417 3.14585L12.0625 0.166687L7.60417 4.62502L4.625 1.64585L1.64583 4.62502L4.625 7.60419L0.166668 12.0625L3.14583 15.0417L0.166668 18.0209L3.14583 21L10.5833 13.5625L28.4375 31.4167L21 38.8542L23.9792 41.8334L26.9583 38.8542L29.9375 41.8334L34.3958 37.375L37.375 40.3542L40.3542 37.375L37.375 34.3959L41.8333 29.9375L38.8542 26.9584Z" fill="white"/>
</svg>
