<svg width="39" height="38" viewBox="0 0 39 38" fill="none" xmlns="http://www.w3.org/2000/svg">
<path fill-rule="evenodd" clip-rule="evenodd" d="M18.7479 4.45831C16.7583 4.70206 14.8729 5.40831 14.0771 6.06247C9.43542 9.89997 6.81458 14.9729 5.45417 19.3958C4.86838 21.2696 4.47606 23.1984 4.28333 25.1521C4.2125 25.95 4.14792 26.7854 4.26875 27.5833C5.06667 28.4875 6.19583 29.1437 7.24375 29.7062C9.43333 30.8833 12.7229 32.1041 17.1458 32.5958C19.65 32.875 22.8125 33.0333 25.7292 32.8C28.7563 32.5562 31.0771 31.9208 32.2812 30.9562C34.3104 29.3333 34.8229 27.4396 34.6375 25.7812C34.4396 23.9979 33.4375 22.4896 32.4292 21.8166C30.6896 20.6583 28.7313 20.5416 26.8854 21.025C24.9854 21.525 23.425 22.6083 22.6875 23.4958C22.5025 23.719 22.2729 23.9012 22.0134 24.0306C21.754 24.1601 21.4703 24.2339 21.1807 24.2474C20.8911 24.261 20.6018 24.2139 20.3314 24.1092C20.061 24.0045 19.8155 23.8446 19.6104 23.6396C18.4646 22.4937 16.5167 22.1604 13.9062 23.9C13.6215 24.0902 13.2942 24.2072 12.9534 24.2407C12.6125 24.2743 12.2687 24.2233 11.9523 24.0923C11.6359 23.9612 11.3567 23.7543 11.1393 23.4896C10.922 23.225 10.7732 22.9108 10.7062 22.575C10.1104 19.5875 10.4208 16.4125 10.9708 13.7937C11.525 11.1708 12.3583 8.91456 12.9708 7.69372C13.144 7.34814 13.41 7.05756 13.7389 6.85449C14.0678 6.65142 14.4468 6.54386 14.8333 6.54386C15.2199 6.54386 15.5988 6.65142 15.9278 6.85449C16.2567 7.05756 16.5226 7.34814 16.6958 7.69372C17.1188 8.53539 17.8917 9.28956 18.7917 9.60623C19.4896 9.16664 20.0958 8.55206 20.5875 7.89581C21.4917 6.69164 21.7938 5.55206 21.3917 4.54581C20.575 4.25414 19.5875 4.35622 18.7479 4.45831ZM21.8375 0.366641C22.8458 0.560391 24.3188 1.06456 25.0292 2.48539C26.5854 5.59789 25.3 8.55623 23.9208 10.3958C23.0208 11.5958 21.8625 12.725 20.5146 13.4166C20.2333 13.5625 19.6604 13.8333 19 13.8333C17.7688 13.8333 16.5625 13.2729 15.5729 12.5729C15.3854 13.2104 15.2042 13.9104 15.0479 14.6521C14.7389 16.0751 14.5714 17.5252 14.5479 18.9812C16.7417 18.2729 18.9854 18.3479 20.9188 19.4396C22.3717 18.2985 24.0428 17.4669 25.8292 16.9958C28.5375 16.2854 31.7875 16.3833 34.7396 18.35C36.8542 19.7604 38.4563 22.4166 38.7792 25.3229C39.1167 28.3521 38.0646 31.6646 34.8833 34.2104C32.6375 36.0062 29.2146 36.7 26.0646 36.9521C22.8042 37.2146 19.3604 37.0354 16.6875 36.7375C11.7333 36.1875 7.92917 34.8041 5.27083 33.3771C3.52708 32.4396 1.14167 31.1437 0.385415 29.1583C-0.125001 27.8125 0.00833187 26.1791 0.133332 24.7791C0.299999 22.9437 0.708332 20.6521 1.47292 18.1687C2.99792 13.2125 5.98333 7.34789 11.4229 2.85206C13.0958 1.46872 15.8958 0.610391 18.2396 0.322891C19.4479 0.174974 20.7188 0.154141 21.8375 0.366641Z" fill="white"/>
</svg>
