<svg width="42" height="42" viewBox="0 0 42 42" fill="none" xmlns="http://www.w3.org/2000/svg">
<path d="M38.8543 26.9584L41.8334 23.9792L38.8543 21L31.4167 28.4375L13.5626 10.5834L21.0001 3.14585L18.0209 0.166687L15.0417 3.14585L12.0626 0.166687L7.60425 4.62502L4.62508 1.64585L1.64591 4.62502L4.62508 7.60419L0.166748 12.0625L3.14592 15.0417L0.166748 18.0209L3.14592 21L10.5834 13.5625L28.4376 31.4167L21.0001 38.8542L23.9792 41.8334L26.9584 38.8542L29.9376 41.8334L34.3959 37.375L37.3751 40.3542L40.3543 37.375L37.3751 34.3959L41.8334 29.9375L38.8543 26.9584Z" fill="white"/>
</svg>
